<svg width="27" height="18" viewBox="0 0 27 18" fill="none" xmlns="http://www.w3.org/2000/svg">
<path d="M24.79 11.3802C22.49 13.0402 20.33 14.9202 18.03 17.1002C16.44 14.1402 19.26 12.9902 19.93 10.9102C17.83 11.1202 15.78 11.0202 13.73 11.0702C9.98998 11.1302 6.19998 10.5002 2.40998 10.8602C1.33998 10.9702 0.819978 10.0802 -2.14059e-05 9.72024C0.309978 8.78024 1.17998 8.99024 1.68998 8.58024C1.78998 8.16024 1.42998 8.06024 1.27998 7.80024C0.919977 7.33024 1.07998 6.97024 1.58998 6.76024C2.20998 6.50024 2.86998 6.45024 3.48998 6.50024C5.38998 6.55024 7.22998 6.34024 9.11998 6.08024C11.37 5.82024 14.19 5.77024 16.39 5.82024C16.65 5.09024 15.67 4.73024 15.37 4.31024C15.01 3.84024 14.6 3.32024 14.19 2.85024C13.47 2.02024 13.99 1.08024 14.29 0.350242C14.55 -0.379758 15.47 0.200242 15.93 0.460242C17.57 1.35024 19.21 2.28024 20.8 3.27024C22.03 4.05024 23.05 5.14024 24.39 5.71024C24.8 5.87024 25.21 6.13024 25.16 6.65024C25.11 7.38024 25.67 7.64024 26.13 7.95024C27 8.63024 27.05 9.20024 26.28 9.98024C25.82 10.4502 25.31 10.9702 24.79 11.3802Z" fill="#1FB788"/>
</svg>
